<svg width="82" height="84" viewBox="0 0 82 84" fill="none" xmlns="http://www.w3.org/2000/svg">
<path d="M53.9086 25.477C54.1168 25.656 54.341 25.8351 54.5332 26.0142C56.0227 27.3491 58.2168 27.7235 59.8824 26.6002L70.709 19.2583C72.5348 18.0211 72.9832 15.4815 71.5258 13.8211C68.8672 10.842 65.8082 8.23728 62.4129 6.12098C60.507 4.9326 58.1047 5.89307 57.2719 8.00937L52.3871 20.4141C51.6664 22.2211 52.4191 24.256 53.9086 25.4932V25.477ZM52.5312 5.99075C53.348 3.90701 52.275 1.53025 50.1289 1.02559C47.198 0.358143 44.1391 0 41 0C37.8609 0 34.802 0.358143 31.8711 1.04187C29.709 1.53025 28.6359 3.90701 29.4688 5.99075L34.3215 18.3304C35.0422 20.1699 37.0121 21.1304 38.966 20.9351C39.6387 20.87 40.3113 20.8374 41 20.8374C41.6887 20.8374 42.3773 20.87 43.034 20.9351C44.9719 21.1304 46.9418 20.1699 47.6785 18.3304L52.5312 5.99075ZM10.4902 13.8373C9.03281 15.4978 9.48125 18.0374 11.307 19.2746L22.1336 26.6165C23.7832 27.7398 25.9934 27.3654 27.4828 26.0305C27.691 25.8514 27.8992 25.656 28.1234 25.4932C29.6129 24.2723 30.3496 22.2211 29.6449 20.4141L24.7281 8.00937C23.8953 5.90935 21.477 4.94888 19.5871 6.12098C16.1918 8.23728 13.1328 10.842 10.4902 13.8373ZM60.7793 36.1561C60.9234 36.6933 61.0516 37.2306 61.1477 37.7841C61.548 39.9003 63.2297 41.6748 65.3438 41.6748H78.1562C80.2863 41.6748 82.016 39.9166 81.8238 37.7678C81.4234 33.3398 80.3344 29.1072 78.6688 25.1839C77.7879 23.0839 75.2414 22.4816 73.3676 23.7351L62.3809 31.1747C60.8113 32.2328 60.2668 34.3003 60.7793 36.1398V36.1561ZM8.63242 23.7351C6.77461 22.4653 4.21211 23.0839 3.33125 25.1839C1.66562 29.1072 0.576563 33.3398 0.176172 37.7678C-0.0160156 39.9166 1.71367 41.6748 3.84375 41.6748H16.6562C18.7863 41.6748 20.468 39.9166 20.8523 37.7841C20.9484 37.2306 21.0766 36.6933 21.2207 36.1561C21.7172 34.3003 21.1887 32.2491 19.6191 31.191L8.63242 23.7351ZM16.6562 46.8841H3.84375C1.71367 46.8841 0 48.626 0 50.7911V58.6052C0 60.7703 1.71367 62.5122 3.84375 62.5122H16.6562C18.7863 62.5122 20.5 60.7703 20.5 58.6052V50.7911C20.5 48.626 18.7863 46.8841 16.6562 46.8841ZM65.3438 46.8841C63.2137 46.8841 61.5 48.626 61.5 50.7911V58.6052C61.5 60.7703 63.2137 62.5122 65.3438 62.5122H78.1562C80.2863 62.5122 82 60.7703 82 58.6052V50.7911C82 48.626 80.2863 46.8841 78.1562 46.8841H65.3438ZM3.84375 67.7215C1.71367 67.7215 0 69.4634 0 71.6285V79.4426C0 81.6077 1.71367 83.3496 3.84375 83.3496H16.6562C18.7863 83.3496 20.5 81.6077 20.5 79.4426V71.6285C20.5 69.4634 18.7863 67.7215 16.6562 67.7215H3.84375ZM65.3438 67.7215C63.2137 67.7215 61.5 69.4634 61.5 71.6285V79.4426C61.5 81.6077 63.2137 83.3496 65.3438 83.3496H78.1562C80.2863 83.3496 82 81.6077 82 79.4426V71.6285C82 69.4634 80.2863 67.7215 78.1562 67.7215H65.3438ZM43.5625 31.2561C43.5625 29.8235 42.4094 28.6514 41 28.6514C39.5906 28.6514 38.4375 29.8235 38.4375 31.2561V75.5355C38.4375 76.9681 39.5906 78.1402 41 78.1402C42.4094 78.1402 43.5625 76.9681 43.5625 75.5355V31.2561ZM33.3125 36.4654C33.3125 35.0329 32.1594 33.8608 30.75 33.8608C29.3406 33.8608 28.1875 35.0329 28.1875 36.4654V75.5355C28.1875 76.9681 29.3406 78.1402 30.75 78.1402C32.1594 78.1402 33.3125 76.9681 33.3125 75.5355V36.4654ZM53.8125 36.4654C53.8125 35.0329 52.6594 33.8608 51.25 33.8608C49.8406 33.8608 48.6875 35.0329 48.6875 36.4654V75.5355C48.6875 76.9681 49.8406 78.1402 51.25 78.1402C52.6594 78.1402 53.8125 76.9681 53.8125 75.5355V36.4654Z" fill="#C0A666"/>
</svg>
